<?xml version="1.0" encoding="utf-8"?>
<!-- Generator: Adobe Illustrator 19.1.0, SVG Export Plug-In . SVG Version: 6.00 Build 0)  -->
<svg version="1.1" id="Layer_1" xmlns="http://www.w3.org/2000/svg" xmlns:xlink="http://www.w3.org/1999/xlink" x="0px" y="0px"
	 viewBox="0 0 64 64" enable-background="new 0 0 64 64" xml:space="preserve">
<g>
	
		<path fill="#f4c80f" stroke="#c69312" stroke-width="3" stroke-linecap="round" stroke-linejoin="round" stroke-miterlimit="10" d="
		M61.625,23.525c0-2.659-1.407-4.985-3.512-6.29c-0.639-3.358-3.543-5.906-7.063-6.003c-1.202-2.466-3.725-4.17-6.653-4.17
		c-1.182,0-2.295,0.284-3.286,0.776c-1.355-1.505-3.313-2.457-5.498-2.457c-1.265,0-2.455,0.319-3.496,0.878
		C31.075,5.7,29.885,5.381,28.62,5.381c-2.275,0-4.309,1.028-5.667,2.643c-0.796-0.293-1.653-0.46-2.55-0.46
		c-2.724,0-5.098,1.475-6.384,3.666c-3.561,0.084-6.495,2.678-7.105,6.085c-2.491,1.193-4.216,3.729-4.216,6.675
		c0,0.515,0.053,1.018,0.153,1.504c-0.303,0.808-0.476,1.68-0.476,2.593c0,4.09,3.315,7.405,7.405,7.405
		c1.54,0,2.969-0.47,4.154-1.275c0.088,0.003,0.173,0.013,0.262,0.013c1.045,0,2.038-0.219,2.939-0.609
		c0.841,3.162,3.715,5.496,7.141,5.499c1.347,1.847,3.521,3.052,5.981,3.052c2.243,0,4.249-1.001,5.607-2.576
		c0.866,0.355,1.812,0.553,2.805,0.553c3.072,0,5.706-1.871,6.828-4.534c1.603,0.673,3.475,1.067,5.484,1.067
		c5.879,0,10.644-3.315,10.644-7.405c0-0.925-0.255-1.807-0.7-2.624C61.369,25.703,61.625,24.645,61.625,23.525z"/>
	
		<path fill="#efb054" stroke="#c69312" stroke-width="2" stroke-linecap="round" stroke-linejoin="round" stroke-miterlimit="10" d="
		M46.774,39.599c-1.786,2.528-4.708,4.062-7.849,4.062c-0.745,0-1.484-0.086-2.205-0.256c-0.847,0.72-1.801,1.277-2.821,1.662
		c2.316,2.822,6.549,8.462,7.971,13.552c0.84,0,3.246-0.053,4.459-2.101c-0.94-2.626-2.096-5.672-3.514-7.825l-0.006-0.132
		c0.658,0.191,1.352,0.299,2.072,0.299c1.987,0,3.788-0.787,5.118-2.062c0.001,0,0.005,0,0.005,0
		c0.001-0.001,0.006-0.009,0.007-0.011c0.763-0.734,1.366-1.63,1.76-2.633c0.27,0.03,0.544,0.048,0.822,0.048
		c3.81,0,6.944-2.878,7.356-6.577c-2.293,1.588-5.35,2.568-8.714,2.568C49.724,40.193,48.2,39.989,46.774,39.599z"/>
	<g>
		
			<line fill="none" stroke="#c69312" stroke-width="2" stroke-linecap="round" stroke-linejoin="round" stroke-miterlimit="10" x1="21.552" y1="14.248" x2="24.914" y2="17.136"/>
		<g>
			<path fill="none" stroke="#c69312" stroke-width="2" stroke-linecap="round" stroke-linejoin="round" stroke-miterlimit="10" d="
				M9.735,26.747c0,0,0.946-2.048,6.145-2.048c5.199,0,9.033-2.941,9.033-7.563c1.155,0.578,8.088,1.943,8.718-3.939
				c0.63,3.729,0.735,7.248,8.298,9.453c7.563,2.206,6.933,7.248,6.67,9.979"/>
			<path fill="none" stroke="#c69312" stroke-width="2" stroke-linecap="round" stroke-linejoin="round" stroke-miterlimit="10" d="
				M19.308,24.22c0,0-1.379,3.63,1.982,5.311"/>
			<path fill="none" stroke="#c69312" stroke-width="2" stroke-linecap="round" stroke-linejoin="round" stroke-miterlimit="10" d="
				M36.96,20.366c0,0-5.534,6.539-0.702,12.263"/>
			<path fill="none" stroke="#c69312" stroke-width="2" stroke-linecap="round" stroke-linejoin="round" stroke-miterlimit="10" d="
				M28.012,27.535c0,0,2.238-2.599,6.266-1.037"/>
			<path fill="none" stroke="#c69312" stroke-width="2" stroke-linecap="round" stroke-linejoin="round" stroke-miterlimit="10" d="
				M41.074,22.384c0,0-0.036-3.882,3.01-5.721"/>
			<path fill="none" stroke="#c69312" stroke-width="2" stroke-linecap="round" stroke-linejoin="round" stroke-miterlimit="10" d="
				M48.234,27.535c0,0,4.987-2.101,7.613,0"/>
		</g>
	</g>
</g>
</svg>
